<!DOCTYPE svg PUBLIC "-//W3C//DTD SVG 1.1//EN" "http://www.w3.org/Graphics/SVG/1.1/DTD/svg11.dtd">

<!-- Uploaded to: SVG Repo, www.svgrepo.com, Transformed by: SVG Repo Mixer Tools -->
<svg fill="#ffffff" height="800px" width="800px" version="1.1" id="Layer_1" xmlns="http://www.w3.org/2000/svg" xmlns:xlink="http://www.w3.org/1999/xlink" viewBox="0 0 299.463 299.463" xml:space="preserve" stroke="#ffffff">

<g id="SVGRepo_bgCarrier" stroke-width="0"/>

<g id="SVGRepo_tracerCarrier" stroke-linecap="round" stroke-linejoin="round"/>

<g id="SVGRepo_iconCarrier"> <g> <g> <path d="M256.851,173.832v-48.201c22.916-4.918,34.151-30.668,22.556-50.771c-11.547-20.004-39.486-23.251-55.242-5.844 l-41.746-24.106C189.618,22.603,172.861,0,149.734,0c-23.132,0-39.881,22.609-32.685,44.911L75.305,69.016 C59.522,51.586,31.597,54.88,20.061,74.863c-11.63,20.163-0.298,45.862,22.557,50.769v48.2 c-22.821,4.898-34.195,30.591-22.556,50.771c11.529,19.972,39.454,23.285,55.242,5.845l41.746,24.106 c-7.199,22.308,9.559,44.911,32.685,44.911c23.132,0,39.88-22.609,32.685-44.911l41.745-24.106 c15.817,17.469,43.73,14.099,55.242-5.844c0,0,0-0.001,0.001-0.002c4.587-7.953,5.805-17.213,3.431-26.076 C279.392,185.657,269.129,176.461,256.851,173.832z M249.62,72.088c20.568,0,27.428,27.191,10.008,37.239 c-0.003,0.002-0.006,0.003-0.009,0.005c-10.04,5.81-22.85,1.762-27.877-8.475C225.206,87.548,234.938,72.088,249.62,72.088z M149.734,14.4c11.005,0,19.958,8.954,19.958,19.959c0,11.127-9.077,19.958-19.958,19.958c-10.95,0-19.958-8.9-19.958-19.958 C129.776,23.354,138.729,14.4,149.734,14.4z M39.84,109.328c-17.451-10.067-10.534-37.24,10.01-37.24 c15.311,0,24.922,16.653,17.251,29.942C61.681,111.397,49.517,114.925,39.84,109.328z M59.802,224.702 c-9.535,5.503-21.768,2.229-27.268-7.298c-7.639-13.242,1.887-29.945,17.236-29.945c0.013,0,0.027,0,0.04,0 C70.07,187.48,77.49,214.469,59.802,224.702z M149.734,285.062c-11.005,0-19.958-8.954-19.958-19.958 c0-11.127,9.077-19.958,19.958-19.958c10.954,0,19.958,8.903,19.958,19.958C169.693,276.109,160.74,285.062,149.734,285.062z M216.953,217.982l-41.727,24.095c-13.778-15.22-37.459-14.94-50.983,0l-41.728-24.096c6.196-19.289-5.541-39.835-25.498-44.149 V125.63c19.752-4.268,31.762-24.65,25.498-44.149l41.727-24.095c13.629,15.055,37.32,15.093,50.983,0l41.728,24.096 c-6.196,19.29,5.534,39.835,25.498,44.149v48.202C222.61,178.123,210.721,198.581,216.953,217.982z M266.935,217.404 c-5.501,9.528-17.732,12.802-27.261,7.302c-17.682-10.23-10.301-37.247,10.032-37.247 C264.984,187.459,274.602,204.112,266.935,217.404z"/> </g> </g> </g>

</svg>